<svg width="48" height="48" viewBox="0 0 48 48" fill="none" xmlns="http://www.w3.org/2000/svg">
<mask id="mask0_65_68" style="mask-type:alpha" maskUnits="userSpaceOnUse" x="0" y="0" width="48" height="48">
<rect width="48" height="48" fill="#D9D9D9"/>
</mask>
<g mask="url(#mask0_65_68)">
<path d="M13.7001 25.5L25.0501 36.85C25.3501 37.15 25.5001 37.5 25.5001 37.9C25.5001 38.3 25.3501 38.65 25.0501 38.95C24.7501 39.25 24.4001 39.4 24.0001 39.4C23.6001 39.4 23.2501 39.25 22.9501 38.95L9.0501 25.05C8.88343 24.8833 8.76676 24.7166 8.7001 24.55C8.63343 24.3833 8.6001 24.2 8.6001 24C8.6001 23.8 8.63343 23.6166 8.7001 23.45C8.76676 23.2833 8.88343 23.1166 9.0501 22.95L22.9501 9.04998C23.2501 8.74998 23.6001 8.59998 24.0001 8.59998C24.4001 8.59998 24.7501 8.74998 25.0501 9.04998C25.3501 9.34998 25.5001 9.69998 25.5001 10.1C25.5001 10.5 25.3501 10.85 25.0501 11.15L13.7001 22.5H38.5001C38.9334 22.5 39.2918 22.6416 39.5751 22.925C39.8584 23.2083 40.0001 23.5666 40.0001 24C40.0001 24.4333 39.8584 24.7916 39.5751 25.075C39.2918 25.3583 38.9334 25.5 38.5001 25.5H13.7001Z" fill="white"/>
</g>
</svg>
