<svg width="21" height="26" viewBox="0 0 21 26" fill="none" xmlns="http://www.w3.org/2000/svg">
<path d="M0 24.1V1.60001C0 1.13334 0.15 0.766673 0.45 0.500006C0.75 0.233339 1.1 0.100006 1.5 0.100006C1.63333 0.100006 1.76667 0.116673 1.9 0.150006C2.03333 0.183339 2.16667 0.233339 2.3 0.300006L20 11.6C20.2333 11.7667 20.4083 11.95 20.525 12.15C20.6417 12.35 20.7 12.5833 20.7 12.85C20.7 13.1167 20.6417 13.35 20.525 13.55C20.4083 13.75 20.2333 13.9333 20 14.1L2.3 25.4C2.16667 25.4667 2.03333 25.5167 1.9 25.55C1.76667 25.5833 1.63333 25.6 1.5 25.6C1.1 25.6 0.75 25.4667 0.45 25.2C0.15 24.9333 0 24.5667 0 24.1Z" fill="white"/>
</svg>
