<svg width="48" height="48" viewBox="0 0 48 48" fill="none" xmlns="http://www.w3.org/2000/svg">
<mask id="mask0_67_145" style="mask-type:alpha" maskUnits="userSpaceOnUse" x="0" y="0" width="48" height="48">
<rect width="48" height="48" fill="#D9D9D9"/>
</mask>
<g mask="url(#mask0_67_145)">
<path d="M20.35 31.75C21.1167 32.5167 22.225 32.875 23.675 32.825C25.125 32.775 26.1833 32.2333 26.85 31.2L35.8 17.2C36.0333 16.8333 36.0083 16.5083 35.725 16.225C35.4417 15.9417 35.1167 15.9167 34.75 16.15L20.9 25.2C19.9 25.8667 19.3667 26.9333 19.3 28.4C19.2333 29.8667 19.5833 30.9833 20.35 31.75ZM23.9 8.05C25.4 8.05 26.975 8.25 28.625 8.65C30.275 9.05 31.9 9.7 33.5 10.6C33.8667 10.8333 34.1167 11.1552 34.25 11.5655C34.3833 11.9758 34.3167 12.3675 34.05 12.7405C33.7833 13.1135 33.4417 13.325 33.025 13.375C32.6083 13.425 32.2 13.35 31.8 13.15C30.4333 12.4167 29.0417 11.8833 27.625 11.55C26.2083 11.2167 24.9667 11.05 23.9 11.05C19.2173 11.05 15.23 12.7203 11.938 16.061C8.646 19.4013 7 23.4473 7 28.199C7 29.6997 7.20833 31.2167 7.625 32.75C8.04167 34.2833 8.63333 35.7 9.4 37H38.35C39.0833 35.8 39.6667 34.4 40.1 32.8C40.5333 31.2 40.75 29.6333 40.75 28.1C40.75 26.9333 40.6 25.675 40.3 24.325C40 22.975 39.5 21.6833 38.8 20.45C38.5667 20.0833 38.475 19.6833 38.525 19.25C38.575 18.8167 38.7833 18.4833 39.15 18.25C39.5047 17.9833 39.8933 17.9167 40.316 18.05C40.7387 18.1833 41.05 18.45 41.25 18.85C42.0167 20.35 42.6083 21.8417 43.025 23.325C43.4417 24.8083 43.6833 26.3 43.75 27.8C43.8167 29.8 43.6167 31.6833 43.15 33.45C42.6833 35.2167 42 36.85 41.1 38.35C40.7 39.1167 40.275 39.5833 39.825 39.75C39.375 39.9167 38.8167 40 38.15 40H9.6C9.03333 40 8.475 39.8583 7.925 39.575C7.375 39.2917 6.96667 38.8833 6.7 38.35C5.83333 36.75 5.16667 35.125 4.7 33.475C4.23333 31.825 4 30.0667 4 28.2C4 25.4333 4.525 22.825 5.575 20.375C6.625 17.925 8.05 15.7917 9.85 13.975C11.65 12.1583 13.7613 10.7167 16.184 9.65C18.6067 8.58334 21.1787 8.05 23.9 8.05Z" fill="white"/>
</g>
</svg>
